# xmcd
#
# Track frame offsets:
# 182
# 16607
# 29757
# 43482
# 58070
# 71357
# 86545
# 96682
# 114557
# 133670
# 148495
# 160457
# 171882
# 185607
# 197957
# 210432
#
# Disc length: 3026 seconds
#
#
# Revision: 0
# Processed by: cddbd v1.5.1PL2 Copyright (c) Steve Scherf et al.
# Submitted via: FreeRIP 2.943 
#
DISCID=f90bd010
DTITLE=verschiedene Künstler - Trucker Hit Power
DYEAR=1900
DGENRE=Country
TTITLE0=Tom Astor - Verrückt sein und sonst gar nichts
TTITLE1=Gunter Gabriel - Einfache Fakten
TTITLE2=Jonny Hill - Suchst Du Gold
TTITLE3=Larry Schuba and Western Union - Cowboyboots and Bluejeans
TTITLE4=Tom Astor and Wolfgang Petry - Take Me Home Country Roads
TTITLE5=Linda Feller - Lebenslänglich Liebe pur
TTITLE6=Tom Astor and Boxcar Willie - Big Freight Train Carry Me Home
TTITLE7=Nashville Music Company - Unten am Fluß
TTITLE8=Larry Schuba and Western Union - Countrymusicfieber
TTITLE9=Tom Astor - Renovier Deine Seele
TTITLE10=Dagmar The Lady Of Country - Pures Gold
TTITLE11=Dirk Maverick - Ich bin wie ich bin
TTITLE12=Tom Astor and Moe Bandy - Till I'm Too Old To Die Young
TTITLE13=Mark Bender - 1000 und 2 Nächte
TTITLE14=Dröppcher - Von Küste zu Küste
TTITLE15=Tom Astor - Freundschaft
EXTD=CD 1 von 2
EXTT0=
EXTT1=
EXTT2=
EXTT3=
EXTT4=
EXTT5=
EXTT6=
EXTT7=
EXTT8=
EXTT9=
EXTT10=
EXTT11=
EXTT12=
EXTT13=
EXTT14=
EXTT15=
PLAYORDER=
